<?xml version="1.0" encoding="utf-8"?>
<!-- Svg Vector Icons : http://www.onlinewebfonts.com/icon -->
<!DOCTYPE svg PUBLIC "-//W3C//DTD SVG 1.1//EN" "http://www.w3.org/Graphics/SVG/1.1/DTD/svg11.dtd">
<svg version="1.1" xmlns="http://www.w3.org/2000/svg" xmlns:xlink="http://www.w3.org/1999/xlink" x="0px" y="0px" viewBox="0 0 256 256" enable-background="new 0 0 256 256" xml:space="preserve">
<metadata> Svg Vector Icons : http://www.onlinewebfonts.com/icon </metadata>
<g><g><g><path fill="#000000" d="M23.9,10.7c-1.4,0.4-3.2,1.1-4.1,1.7c-2.4,1.4-5.9,4.9-7.2,7.1C9.9,23.9,10,20.9,10,93.8c0,71.8-0.1,69.1,2.3,73.7c1.5,2.9,5.3,6.6,8.4,8c1.4,0.7,4,1.4,5.8,1.7c1.8,0.2,15.2,0.5,31.2,0.5c15.4,0,28,0.1,28,0.2s-3.1,5.2-7,11.2l-7,10.9l0.2,2.4c0.1,1.5,0.6,2.8,1.1,3.4c2,2.3,2,2.3,31.8,2.3h27.9v-30.7v-30.7l-53.4-0.1l-53.4-0.1l-2-1.4c-1.1-0.8-2.5-2.4-3.1-3.5l-1.2-2.1V83.5c0-44.6,0.1-56.6,0.6-57.9c0.7-2.2,3.4-4.8,5.6-5.6c1.3-0.5,19-0.6,88.5-0.6h86.9l1.8,1c2.3,1.2,3.7,2.7,4.6,4.8c0.6,1.5,0.7,6.3,0.7,38.2v36.5l4.7-0.1l4.7-0.1l0.1-35c0-22.8,0-36.1-0.4-38.2c-1-6.5-5-11.9-10.9-14.7l-3.1-1.5l-88.5-0.1C38.4,10,26,10.1,23.9,10.7z M117.6,157.4c2,1.2,3.2,3.5,3.2,6.1c0,5.1-5.4,8.3-10.1,6.1c-4.1-2-5.1-8.1-1.8-11.2C111.3,156.1,114.8,155.7,117.6,157.4z"/><path fill="#000000" d="M35.9,47.6L36,61.8l77.8,0.1l77.8,0.1V47.7V33.5h-77.9H35.8L35.9,47.6z"/><path fill="#000000" d="M35.9,85.4L36,99.6h35.3h35.3l0.1-14.2l0.1-14.2H71.3H35.8L35.9,85.4z"/><path fill="#000000" d="M121.1,85.5v14.3h35.3h35.3V85.5V71.3h-35.3h-35.3V85.5z"/><path fill="#000000" d="M155.6,109.9c-5.4,1.8-9.3,5.2-11.8,10.5l-1.3,2.7v54.4v54.4l1.3,2.7c2.5,5.4,6.3,8.8,11.9,10.5c2.6,0.8,4.7,0.9,38.2,0.9c38.3,0,38.3,0,42.6-2.5c2.3-1.3,5.8-4.8,7.1-7.2c2.4-4.1,2.4-3,2.4-58.7c0-56.1,0-54.5-2.5-58.9c-1.3-2.3-4.8-5.8-7.2-7.1c-4-2.4-4.4-2.4-42.6-2.4C160.6,109.1,158,109.1,155.6,109.9z M235.2,120.2l1.3,1.4v51.1c0,48.4,0,51.1-0.8,52.3c-0.5,0.7-1.3,1.5-2,1.7c-0.7,0.3-16.5,0.5-40.1,0.5h-38.9l-1.5-1.3l-1.5-1.3l-0.1-50.9c-0.1-37.6,0-51.2,0.4-52.1c1.2-2.8-1.2-2.6,42.1-2.6h39.7L235.2,120.2z M196.8,233.5c3.5,2.8,1.8,8.3-2.6,8.3c-2.3,0-3.4-0.6-4.2-2.3c-1.1-2.1-0.9-3.6,0.9-5.3C192.7,232.3,195,232,196.8,233.5z"/><path fill="#000000" d="M161.6,140.2v11.8h33h33v-11.8v-11.8h-33h-33V140.2z"/><path fill="#000000" d="M161.6,173.3v11.8h33h33v-11.8v-11.8h-33h-33V173.3z"/><path fill="#000000" d="M161.6,206.5v11.8h33h33v-11.8v-11.8h-33h-33V206.5z"/></g></g></g>
</svg>